<mxfile host="app.diagrams.net" modified="2021-08-08T05:09:06.330Z" agent="5.0 (Macintosh; Intel Mac OS X 10_15_7) AppleWebKit/537.36 (KHTML, like Gecko) Chrome/86.0.4240.193 Safari/537.36" etag="P-6vtbhAq0ec6AkWZemM" version="14.9.3" type="github">
  <diagram id="3vCP5cg6xT0Qj_H0QtbL" name="Page-1">
    <mxGraphModel dx="946" dy="536" grid="1" gridSize="10" guides="1" tooltips="1" connect="1" arrows="1" fold="1" page="1" pageScale="1" pageWidth="827" pageHeight="1169" math="0" shadow="0">
      <root>
        <mxCell id="0" />
        <mxCell id="1" parent="0" />
        <mxCell id="LWSW3A-1cWPufdHFpulN-14" value="" style="rounded=0;whiteSpace=wrap;html=1;" vertex="1" parent="1">
          <mxGeometry x="294" y="247" width="50" height="50" as="geometry" />
        </mxCell>
        <mxCell id="LWSW3A-1cWPufdHFpulN-15" value="" style="rounded=0;whiteSpace=wrap;html=1;" vertex="1" parent="1">
          <mxGeometry x="344" y="247" width="50" height="50" as="geometry" />
        </mxCell>
        <mxCell id="LWSW3A-1cWPufdHFpulN-16" value="" style="rounded=0;whiteSpace=wrap;html=1;" vertex="1" parent="1">
          <mxGeometry x="394" y="247" width="50" height="50" as="geometry" />
        </mxCell>
        <mxCell id="LWSW3A-1cWPufdHFpulN-17" value="" style="rounded=0;whiteSpace=wrap;html=1;" vertex="1" parent="1">
          <mxGeometry x="344" y="197" width="50" height="50" as="geometry" />
        </mxCell>
        <mxCell id="LWSW3A-1cWPufdHFpulN-18" value="" style="rounded=0;whiteSpace=wrap;html=1;" vertex="1" parent="1">
          <mxGeometry x="394" y="197" width="50" height="50" as="geometry" />
        </mxCell>
        <mxCell id="LWSW3A-1cWPufdHFpulN-19" value="" style="rounded=0;whiteSpace=wrap;html=1;" vertex="1" parent="1">
          <mxGeometry x="394" y="147" width="50" height="50" as="geometry" />
        </mxCell>
      </root>
    </mxGraphModel>
  </diagram>
</mxfile>
